<?xml version="1.0" encoding="UTF-8"?>
<svg width="230px" height="240px" viewBox="0 0 230 240" version="1.1" xmlns="http://www.w3.org/2000/svg" xmlns:xlink="http://www.w3.org/1999/xlink">
    <!-- Generator: Sketch 52.5 (67469) - http://www.bohemiancoding.com/sketch -->
    <title>Group 2 Copy</title>
    <desc>Created with Sketch.</desc>
    <g id="Logo" stroke="none" stroke-width="1" fill="none" fill-rule="evenodd">
        <g id="Artboard" transform="translate(-10.000000, -5.000000)" fill="#327381">
            <g id="Group-2-Copy" transform="translate(10.000000, 5.000000)">
                <path d="M58.047619,212.010392 L58.047619,223.131263 L60.1011905,233.674224 L64.6190476,240 L40.5238095,240 L45.0416667,233.674224 L47.0952381,223.131263 L47.0952381,212.010392 L0,212.010392 L22.5306122,178.460349 L0,178.460349 L22.5306122,144.910306 L0,144.910306 L22.5306122,111.360262 L0,111.360262 L52.5714286,33.0768279 L70.2242358,59.9226835 L57.2996292,79.168548 C57.0782164,79.498251 56.9599763,79.8864086 56.9599763,80.2835581 C56.9599763,81.3881276 57.8554068,82.2835581 58.9599763,82.2835581 L77.738349,82.2835581 L57.2996292,112.718591 C57.0782164,113.048294 56.9599763,113.436452 56.9599763,113.833601 C56.9599763,114.938171 57.8554068,115.833601 58.9599763,115.833601 L77.738349,115.833601 L57.2996292,146.268635 C57.0782164,146.598338 56.9599763,146.986495 56.9599763,147.383645 C56.9599763,148.488214 57.8554068,149.383645 58.9599763,149.383645 L77.738349,149.383645 L57.2996292,179.818678 C57.0782164,180.148381 56.9599763,180.536539 56.9599763,180.933688 C56.9599763,182.038257 57.8554068,182.933688 58.9599763,182.933688 L77.738349,182.933688 L58.2118184,212.010392 L58.047619,212.010392 Z M171.952381,210.647938 L153.728551,182.933688 L172.081004,182.933688 C172.471542,182.933688 172.853536,182.819348 173.179849,182.604778 C174.102766,181.997903 174.358969,180.757761 173.752094,179.834843 L153.728551,149.383645 L172.081004,149.383645 C172.471542,149.383645 172.853536,149.269305 173.179849,149.054734 C174.102766,148.447859 174.358969,147.207717 173.752094,146.2848 L153.728551,115.833601 L172.081004,115.833601 C172.471542,115.833601 172.853536,115.719262 173.179849,115.504691 C174.102766,114.897816 174.358969,113.657674 173.752094,112.734757 L153.728551,82.2835581 L172.081004,82.2835581 C172.471542,82.2835581 172.853536,82.1692183 173.179849,81.9546477 C174.102766,81.3477726 174.358969,80.1076308 173.752094,79.1847135 L160.793874,59.4782452 L178.52381,33.0768279 L230,111.360262 L207.938776,111.360262 L230,144.910306 L207.938776,144.910306 L230,178.460349 L207.938776,178.460349 L230,212.010392 L182.904762,212.010392 L182.904762,223.131263 L184.958333,233.674224 L189.47619,240 L165.380952,240 L169.89881,233.674224 L171.952381,223.131263 L171.952381,210.647938 Z M109.52381,211.555116 L63.5238095,211.555116 L86.0544218,178.151676 L63.5238095,178.151676 L86.0544218,144.748237 L63.5238095,144.748237 L86.0544218,111.344798 L63.5238095,111.344798 L86.0544218,77.9413584 L63.5238095,77.9413584 L116.095238,0 L167.571429,77.9413584 L145.510204,77.9413584 L167.571429,111.344798 L145.510204,111.344798 L167.571429,144.748237 L145.510204,144.748237 L167.571429,178.151676 L145.510204,178.151676 L167.571429,211.555116 L120.47619,211.555116 L120.47619,223.131263 L122.529762,233.674224 L127.047619,240 L102.952381,240 L107.470238,233.674224 L109.52381,223.131263 L109.52381,211.555116 Z" id="Combined-Shape"></path>
            </g>
        </g>
    </g>
</svg>